<svg xmlns="http://www.w3.org/2000/svg" xmlns:xlink="http://www.w3.org/1999/xlink" width="20" height="20" viewBox="0 0 20 20"><defs><style>.a{fill:#041b67;}.b{clip-path:url(#a);}.c{fill:url(#b);}.d{fill:url(#c);}.e{fill:url(#d);}.f{fill:url(#e);}.g{fill:url(#f);}.h{fill:url(#h);}.i{fill:url(#i);}.j{fill:url(#j);}.k{fill:url(#k);}</style><clipPath id="a"><rect class="a" width="20" height="20" transform="translate(20 193)"/></clipPath><linearGradient id="b" x1="0.5" x2="0.5" y2="1" gradientUnits="objectBoundingBox"><stop offset="0" stop-color="#6dc7ff"/><stop offset="1" stop-color="#e6abff"/></linearGradient><linearGradient id="c" x1="0.5" x2="0.5" y2="1" gradientUnits="objectBoundingBox"><stop offset="0" stop-color="#1a6dff"/><stop offset="1" stop-color="#c822ff"/></linearGradient><linearGradient id="d" x1="-5.291" y1="-2.045" x2="-3.459" y2="-2.045" xlink:href="#b"/><linearGradient id="e" x1="-1.641" y1="-0.562" x2="-0.951" y2="0.145" xlink:href="#b"/><linearGradient id="f" x1="-1.614" y1="-3.265" x2="-0.889" y2="-3.972" xlink:href="#b"/><linearGradient id="h" y1="0" xlink:href="#b"/><linearGradient id="i" x1="4.215" y1="1.07" x2="6.047" y2="1.07" xlink:href="#b"/><linearGradient id="j" x1="-0.246" y1="1.559" x2="0.444" y2="2.266" xlink:href="#b"/><linearGradient id="k" x1="4.039" y1="-1.214" x2="4.763" y2="-1.921" xlink:href="#b"/></defs><g class="b" transform="translate(-20 -193)"><g transform="translate(20 193)"><circle class="c" cx="5.342" cy="5.342" r="5.342" transform="translate(4.658 4.658)"/><path class="d" d="M11,16.769A5.769,5.769,0,1,1,16.769,11,5.776,5.776,0,0,1,11,16.769ZM11,6.085A4.915,4.915,0,1,0,15.915,11,4.92,4.92,0,0,0,11,6.085Z" transform="translate(-1 -1)"/><path class="e" d="M17.518,11.783l-1.655,0a4.871,4.871,0,0,0,0-3.225h1.585a9.463,9.463,0,0,1,.071,3.228Z" transform="translate(1.658 -0.169)"/><path class="f" d="M16.63,5.915l-1.135,1.1a4.871,4.871,0,0,0-2.281-2.28L14.3,3.682A9.448,9.448,0,0,1,16.63,5.915Z" transform="translate(0.996 -1.387)"/><path class="g" d="M14.314,16.665l-1.1-1.135a4.871,4.871,0,0,0,2.28-2.281l1.055,1.084a9.448,9.448,0,0,1-2.232,2.332Z" transform="translate(0.995 1.005)"/><path class="c" d="M10.369,2.472c-.065,0-.135,0-.2,0s-.135,0-.2,0a9.542,9.542,0,0,0-1.415.1l0,1.381a6.16,6.16,0,0,1,1.612-.273,6.16,6.16,0,0,1,1.612.273l0-1.381A9.542,9.542,0,0,0,10.369,2.472Z" transform="translate(-0.169 -1.69)"/><path class="h" d="M11.784,16.006a6.249,6.249,0,0,1-1.6.313,6.024,6.024,0,0,1-1.6-.288v1.429a9.542,9.542,0,0,0,1.415.1c.065,0,.135,0,.2,0s.135,0,.2,0a9.542,9.542,0,0,0,1.415-.1Z" transform="translate(-0.162 1.694)"/><path class="i" d="M2.546,11.759l1.655,0a4.871,4.871,0,0,1,0-3.225H2.617a9.484,9.484,0,0,0-.177,1.816A9.6,9.6,0,0,0,2.546,11.759Z" transform="translate(-1.698 -0.175)"/><path class="j" d="M3.746,5.915l1.135,1.1a4.871,4.871,0,0,1,2.281-2.28L6.078,3.682A9.448,9.448,0,0,0,3.746,5.915Z" transform="translate(-1.371 -1.387)"/><path class="k" d="M6.042,16.694l1.1-1.135a4.871,4.871,0,0,1-2.28-2.281L3.809,14.362a9.448,9.448,0,0,0,2.232,2.332Z" transform="translate(-1.355 1.012)"/><path class="d" d="M12.038,1.846c-.065,0-.131,0-.192,0s-.127,0-.192,0a9.917,9.917,0,0,0-9.808,10,9.917,9.917,0,0,0,9.808,10c.065,0,.131,0,.192,0s.127,0,.192,0a9.917,9.917,0,0,0,9.808-10A9.917,9.917,0,0,0,12.038,1.846Zm7.3,4.577L18.323,7.454A4.674,4.674,0,0,0,16.15,5.242l.981-1A9.131,9.131,0,0,1,19.338,6.423ZM11.654,2.63c.065,0,.127,0,.192,0s.127,0,.192,0a8.972,8.972,0,0,1,1.346.1l0,1.341a5.618,5.618,0,0,0-1.535-.267,5.618,5.618,0,0,0-1.535.267l0-1.341A8.972,8.972,0,0,1,11.654,2.63ZM6.562,4.238l.981,1A4.674,4.674,0,0,0,5.369,7.454L4.354,6.423A9.131,9.131,0,0,1,6.562,4.238ZM2.615,11.846a9.177,9.177,0,0,1,.135-1.568H4.223a4.807,4.807,0,0,0,0,3.133l-1.473,0A9.185,9.185,0,0,1,2.615,11.846ZM4.354,17.27l1.015-1.035A4.675,4.675,0,0,0,7.538,18.45l-.981,1A9.255,9.255,0,0,1,4.354,17.27Zm9.031,3.69a8.972,8.972,0,0,1-1.346.1c-.065,0-.127,0-.192,0s-.127,0-.192,0a8.972,8.972,0,0,1-1.346-.1V19.619a5.619,5.619,0,0,0,1.538.267,5.619,5.619,0,0,0,1.538-.267Zm3.75-1.506-.981-1a4.675,4.675,0,0,0,2.169-2.216l1.015,1.035A9.255,9.255,0,0,1,17.135,19.454ZM19.777,16.6l-.908-.925a.749.749,0,0,0-.646-.22.757.757,0,0,0-.565.388,3.957,3.957,0,0,1-1.888,1.925.771.771,0,0,0-.381.577.791.791,0,0,0,.215.659l.858.871a8.8,8.8,0,0,1-2.308.925V19.619a.791.791,0,0,0-.3-.623.756.756,0,0,0-.673-.133,4.955,4.955,0,0,1-1.335.239,4.955,4.955,0,0,1-1.335-.239A.755.755,0,0,0,9.838,19a.791.791,0,0,0-.3.623V20.8a8.813,8.813,0,0,1-2.308-.925l.858-.871a.791.791,0,0,0,.215-.659.771.771,0,0,0-.381-.577,3.958,3.958,0,0,1-1.888-1.925.763.763,0,0,0-1.212-.168l-.908.925a9.3,9.3,0,0,1-1-2.4H4.223a.766.766,0,0,0,.612-.306.794.794,0,0,0,.131-.686,4.079,4.079,0,0,1,0-2.722A.794.794,0,0,0,4.835,9.8a.765.765,0,0,0-.612-.306H2.915a9.3,9.3,0,0,1,1-2.4l.908.925a.768.768,0,0,0,.542.227.943.943,0,0,0,.1-.008.757.757,0,0,0,.565-.388A3.957,3.957,0,0,1,7.923,5.922.771.771,0,0,0,8.3,5.345a.791.791,0,0,0-.215-.659l-.858-.872a8.8,8.8,0,0,1,2.308-.925V4.073a.791.791,0,0,0,.3.623.766.766,0,0,0,.469.161.729.729,0,0,0,.2-.027,4.955,4.955,0,0,1,1.335-.239,4.955,4.955,0,0,1,1.335.239.729.729,0,0,0,.2.027.766.766,0,0,0,.469-.161.791.791,0,0,0,.3-.623V2.889a8.813,8.813,0,0,1,2.308.925l-.858.871a.791.791,0,0,0-.215.659.771.771,0,0,0,.381.577,3.958,3.958,0,0,1,1.888,1.925.755.755,0,0,0,.565.388.943.943,0,0,0,.1.008.768.768,0,0,0,.542-.227l.908-.925a9.3,9.3,0,0,1,1,2.4H19.469a.766.766,0,0,0-.612.306.794.794,0,0,0-.131.686,4.079,4.079,0,0,1,0,2.722.794.794,0,0,0,.131.686.765.765,0,0,0,.612.306h1.308A9.3,9.3,0,0,1,19.777,16.6Zm-.308-3.192a4.807,4.807,0,0,0,0-3.133h1.473a9.207,9.207,0,0,1,0,3.137Z" transform="translate(-1.846 -1.846)"/></g></g></svg>