<svg version="1.2" baseProfile="tiny-ps" xmlns="http://www.w3.org/2000/svg" viewBox="0 0 16 16" width="16" height="16">
	<title>Arrow-right-new-svg</title>
	<style>
		tspan { white-space:pre }
		.shp0 { fill: #6f6c6c } 
	</style>
	<g id="Layer">
		<path id="Layer" class="shp0" d="M0.36 4.42C0.36 4.46 0.37 4.51 0.38 4.55C0.39 4.6 0.41 4.64 0.42 4.69C0.44 4.73 0.47 4.77 0.49 4.81C0.52 4.85 0.55 4.88 0.58 4.92L7.85 12.18C7.92 12.25 8 12.3 8.08 12.34C8.17 12.37 8.27 12.39 8.36 12.39C8.46 12.39 8.55 12.37 8.64 12.34C8.73 12.3 8.81 12.25 8.88 12.18L16.14 4.92C16.29 4.78 16.38 4.59 16.39 4.39C16.4 4.19 16.32 3.99 16.18 3.85C16.04 3.71 15.84 3.63 15.64 3.64C15.43 3.65 15.24 3.74 15.11 3.89L8.36 10.64L1.61 3.89C1.51 3.79 1.38 3.72 1.23 3.69C1.09 3.66 0.94 3.67 0.81 3.73C0.67 3.79 0.56 3.88 0.48 4C0.4 4.13 0.36 4.27 0.36 4.42L0.36 4.42Z" />
	</g>
</svg>