<svg xmlns="http://www.w3.org/2000/svg" xmlns:xlink="http://www.w3.org/1999/xlink" width="20" height="20" viewBox="0 0 20 20"><defs><style>.a{fill:#d6d6d6;}.b{clip-path:url(#a);}.c{fill:#fff;}</style><clipPath id="a"><rect class="a" width="20" height="20" rx="5" transform="translate(-0.024)"/></clipPath></defs><g class="b" transform="translate(0.024)"><path class="c" d="M10.9,1.775c-5.509,0-10,3.86-10,8.692a8.3,8.3,0,0,0,3.9,6.842,2.519,2.519,0,0,1-.119.7,7.324,7.324,0,0,1-1.087,2.256l-.445.637h.777a6.022,6.022,0,0,0,4.491-2.036,10.851,10.851,0,0,0,2.487.291c5.509,0,10-3.86,10-8.692S16.412,1.775,10.9,1.775Zm0,.811c5.133,0,9.189,3.554,9.189,7.881s-4.056,7.881-9.189,7.881a9.9,9.9,0,0,1-2.514-.291l-.252-.066-.165.2A6.137,6.137,0,0,1,4.7,19.956a8.319,8.319,0,0,0,.758-1.734,4.706,4.706,0,0,0,.179-1.082v-.223L5.451,16.8a7.516,7.516,0,0,1-3.738-6.33C1.714,6.14,5.77,2.586,10.9,2.586ZM6.542,9.595a.872.872,0,1,0,.872.872A.872.872,0,0,0,6.542,9.595Zm4.361,0a.872.872,0,1,0,.872.872A.872.872,0,0,0,10.9,9.595Zm4.361,0a.872.872,0,1,0,.872.872A.872.872,0,0,0,15.264,9.595Z" transform="translate(-0.903 -1.339)"/></g></svg>