<svg xmlns="http://www.w3.org/2000/svg" xmlns:xlink="http://www.w3.org/1999/xlink" width="32" height="32" viewBox="0 0 32 32"><defs><style>.a{fill:#d6d6d6;}.b{clip-path:url(#a);}.c{fill:#868686;}</style><clipPath id="a"><rect class="a" width="32" height="32" rx="5" transform="translate(131 212)"/></clipPath></defs><g transform="translate(-131 -212)"><g class="b"><path class="c" d="M17.6-.067H2.805A2.808,2.808,0,0,0,0,2.739v9.053A2.808,2.808,0,0,0,2.8,14.6v4.109L8.7,14.6h8.9A2.808,2.808,0,0,0,20.4,11.792V2.739A2.808,2.808,0,0,0,17.6-.067ZM14.943,10.454H5.461v-1.2h9.482Zm0-2.55H5.461v-1.2h9.482Zm0-2.55H5.461v-1.2h9.482Zm0,0" transform="translate(136.798 218.68)"/></g></g></svg>