<svg id="bold" height="512" viewBox="0 0 24 24" width="512" xmlns="http://www.w3.org/2000/svg"><path style="fill: #868686;" d="m12 23.5c-.552 0-1-.448-1-1v-16c0-.552.448-1 1-1s1 .448 1 1v16c0 .552-.448 1-1 1z"/><path style="fill: #868686;" d="m17 24h-10c-.552 0-1-.448-1-1s.448-1 1-1h10c.552 0 1 .448 1 1s-.448 1-1 1z"/><path style="fill: #868686;" d="m12 7c-1.103 0-2-.897-2-2s.897-2 2-2 2 .897 2 2-.897 2-2 2z"/><path style="fill: #868686;" d="m3.5 19c-1.93 0-3.5-1.57-3.5-3.5v-.25c0-.414.336-.75.75-.75h5.5c.414 0 .75.336.75.75v.25c0 1.93-1.57 3.5-3.5 3.5z"/><path style="fill: #868686;" d="m6 16.25c-.397 0-.772-.238-.929-.629l-1.571-3.929-1.571 3.929c-.206.512-.787.761-1.3.557-.513-.206-.762-.787-.557-1.3l2.5-6.25c.152-.379.519-.628.928-.628s.776.249.929.628l2.5 6.25c.205.513-.044 1.095-.557 1.3-.122.049-.248.072-.372.072z"/><path style="fill: #868686;" d="m20.5 11c-1.93 0-3.5-1.57-3.5-3.5v-.25c0-.414.336-.75.75-.75h5.5c.414 0 .75.336.75.75v.25c0 1.93-1.57 3.5-3.5 3.5z"/><path style="fill: #868686;" d="m23 8.25c-.397 0-.772-.238-.929-.629l-1.571-3.929-1.571 3.929c-.206.512-.787.761-1.3.557-.513-.206-.762-.787-.557-1.3l2.5-6.25c.152-.379.519-.628.928-.628s.776.249.929.628l2.5 6.25c.205.513-.044 1.095-.557 1.3-.122.049-.248.072-.372.072z"/><path style="fill: #868686;" d="m2.606 4h18.788v2h-18.788z" transform="matrix(.905 -.426 .426 .905 -.987 5.586)"/></svg>