<svg height="512pt" viewBox="0 0 512 512" width="512pt" xmlns="http://www.w3.org/2000/svg"><path style="fill: #868686;" d="m497 0h-482c-8.285156 0-15 6.714844-15 15v46h512v-46c0-8.285156-6.714844-15-15-15zm0 0"/><path style="fill: #868686;" d="m202.988281 436h106.023438c5.257812-9.15625 12.832031-16.730469 21.988281-21.988281v-226.023438c-9.15625-5.261719-16.730469-12.832031-21.988281-21.988281h-106.023438c-5.261719 9.15625-12.832031 16.730469-21.988281 21.988281v226.023438c9.15625 5.257812 16.730469 12.832031 21.988281 21.988281zm53.011719-30c-8.285156 0-15-6.714844-15-15s6.714844-15 15-15 15 6.714844 15 15-6.714844 15-15 15zm0-210c8.285156 0 15 6.714844 15 15s-6.714844 15-15 15-15-6.714844-15-15 6.714844-15 15-15zm0 60c24.8125 0 45 20.1875 45 45s-20.1875 45-45 45-45-20.1875-45-45 20.1875-45 45-45zm0 0"/><path style="fill: #868686;" d="m256 316c8.277344 0 15-6.722656 15-15s-6.722656-15-15-15-15 6.722656-15 15 6.722656 15 15 15zm0 0"/><path style="fill: #868686;" d="m0 136c0 8.285156 6.714844 15 15 15h61v-60h-76zm0 0"/><path style="fill: #868686;" d="m436 151h61c8.285156 0 15-6.714844 15-15v-45h-76zm0 0"/><path style="fill: #868686;" d="m106 497c0 8.285156 6.714844 15 15 15h270c8.285156 0 15-6.714844 15-15v-406h-300zm45-318.746094c0-6.183594 5.011719-12.039062 10.785156-14.257812 7.847656-3.011719 14.203125-9.363282 17.214844-17.210938 2.214844-5.773437 8.253906-10.785156 14.4375-10.785156h125.125c6.183594 0 12.222656 5.011719 14.441406 10.785156 3.011719 7.847656 9.363282 14.199219 17.210938 17.210938 5.773437 2.21875 10.785156 8.074218 10.785156 14.257812v245.488282c0 6.183593-5.011719 12.042968-10.785156 14.257812-7.847656 3.011719-14.199219 9.367188-17.210938 17.214844-2.21875 5.769531-8.257812 10.785156-14.441406 10.785156h-125.125c-6.183594 0-12.222656-5.011719-14.4375-10.785156-3.011719-7.847656-9.367188-14.203125-17.214844-17.214844-5.769531-2.214844-10.785156-8.070312-10.785156-14.257812 0-45.09375 0-200.390626 0-245.488282zm0 0"/></svg>