<svg id="Capa_1" enable-background="new 0 0 512 512" height="512" viewBox="0 0 512 512" width="512" xmlns="http://www.w3.org/2000/svg"><g><path style="fill: #868686;" d="m331.001 150c0 16.538 13.462 30 30 30h89.182c-1.619-21.112-6.517-41.288-14.35-60h-74.832c-16.538 0-30 13.462-30 30z"/><path style="fill: #868686;" d="m136.001 512h180c8.291 0 15-6.709 15-15v-77h30v-97.5l-149.991-112.5h-135.009c-8.291 0-15 6.709-15 15 0 53.13 21.782 104.019 60 140.713v131.287c0 8.291 6.709 15 15 15z"/><path style="fill: #868686;" d="m256.001 0c-8.291 0-15 6.709-15 15v15h-62.763c-6.213-17.422-22.707-30-42.237-30-24.814 0-45 20.186-45 45s20.186 45 45 45c19.53 0 36.024-12.578 42.237-30h62.763v60h-152.763c-6.213-17.422-22.707-30-42.237-30-24.814 0-46 20.186-46 45s21.186 45 46 45c19.53 0 36.024-12.578 42.237-30h152.763v45.007l143.994 107.996c3.779 2.827 6.006 7.28 6.006 11.997v105h15c24.814 0 45-20.186 45-45v-75h46c5.537 0 10.62-3.047 13.228-7.925 2.607-4.878 2.314-10.796-.747-15.396l-45.453-66.679h-103.028c-33.091 0-60-26.909-60-60s26.909-60 60-60h59.006c-34.708-54.022-95.16-90-164.006-90z"/></g></svg>