<svg xmlns="http://www.w3.org/2000/svg" xmlns:xlink="http://www.w3.org/1999/xlink" width="32" height="32" viewBox="0 0 32 32"><defs><style>.a{fill:#d6d6d6;}.b{clip-path:url(#a);}.c{fill:#868686;}</style><clipPath id="a"><rect class="a" width="32" height="32" rx="5" transform="translate(131 212)"/></clipPath></defs><g transform="translate(-131 -212)"><g class="b"><g transform="translate(136.435 215.6)"><path class="c" d="M19.241,7.877c-2.791-4.585-7-1.4-7-1.4a2.179,2.179,0,0,1-1.117.376H10a2.165,2.165,0,0,1-1.117-.375s-4.2-3.191-7,1.394A14.148,14.148,0,0,0,.224,17.454c.2,1.222.846,2.038,2.072,1.935S6.17,16.1,6.17,16.1a1.512,1.512,0,0,1,1.019-.478H13.94a1.509,1.509,0,0,1,1.019.478s2.653,3.19,3.876,3.292,1.875-.714,2.071-1.935A14.144,14.144,0,0,0,19.241,7.877ZM8.028,11.609H6.58V13a1.349,1.349,0,0,1-.781.228.943.943,0,0,1-.688-.255V11.609H3.744a1.1,1.1,0,0,1-.216-.636,1.458,1.458,0,0,1,.189-.833H5.164V8.693a1.574,1.574,0,0,1,.726-.147,1.915,1.915,0,0,1,.743.175l-.006,1.42H7.995a1.361,1.361,0,0,1,.258.677A1.71,1.71,0,0,1,8.028,11.609Zm6.64,1.59a1.146,1.146,0,1,1,1.146-1.146A1.144,1.144,0,0,1,14.668,13.2Zm0-3.153A1.146,1.146,0,1,1,15.814,8.9,1.144,1.144,0,0,1,14.668,10.047Zm2.854,1.692a1.146,1.146,0,1,1,1.146-1.146A1.144,1.144,0,0,1,17.521,11.739Z" transform="translate(0 0)"/></g></g></g></svg>