<svg xmlns="http://www.w3.org/2000/svg" xmlns:xlink="http://www.w3.org/1999/xlink" width="32" height="32" viewBox="0 0 32 32"><defs><style>.a{fill:#868686;}.b{clip-path:url(#a);}</style><clipPath id="a"><rect class="a" width="32" height="32" rx="5" transform="translate(131 212)"/></clipPath></defs><g transform="translate(-131 -212)"><g class="b"><g transform="translate(135.407 215.352)"><path class="a" d="M15.706,10.21l-2.075,4.071L8.877,11.856l2.079-4.071Z" transform="translate(-2.445 -1.091)"/><path class="a" d="M7.627,14.088a.141.141,0,0,0-.047,0,.145.145,0,0,0-.087.072L6.75,15.609a.148.148,0,0,0,.065.223l5.275,2.685a.148.148,0,0,0,.2-.065L13.034,17a.148.148,0,0,0-.065-.2L7.694,14.1A.152.152,0,0,0,7.627,14.088Z" transform="translate(-1.852 -2.827)"/><path class="a" d="M13.223,17.023l-.742,1.449a.511.511,0,0,1-.688.223L6.517,16.011a.507.507,0,0,1-.254-.3.5.5,0,0,1,.031-.382l.742-1.449a.514.514,0,0,1,.3-.272.5.5,0,0,1,.389.033L13,16.335a.511.511,0,0,1,.223.688Z" transform="translate(-1.719 -2.689)"/><path class="a" d="M18.211,7.25l-.744,1.458a.509.509,0,0,1-.686.223L11.5,6.238a.511.511,0,0,1-.223-.686L12.025,4.1a.511.511,0,0,1,.686-.223l5.277,2.682A.512.512,0,0,1,18.211,7.25Z" transform="translate(-3.092 0)"/><path class="a" d="M27.6,18.932a1.394,1.394,0,0,1-.829.7,1.374,1.374,0,0,1-.426.067,1.409,1.409,0,0,1-.657-.165L16.6,14.724,17.734,12.5l9.235,4.527a1.4,1.4,0,0,1,.634,1.9Z" transform="translate(-4.573 -2.389)"/><path class="a" d="M14.735,23.281v.69H1.942v-.69a1.217,1.217,0,0,1,1.215-1.215H13.52A1.217,1.217,0,0,1,14.735,23.281Z" transform="translate(-0.535 -5.025)"/><path class="a" d="M15.607,25.376v1.8a.181.181,0,0,1-.181.181H.181A.181.181,0,0,1,0,27.176v-1.8A.181.181,0,0,1,.181,25.2H15.426A.181.181,0,0,1,15.607,25.376Z" transform="translate(0 -5.887)"/></g></g></g></svg>