<svg xmlns="http://www.w3.org/2000/svg" xmlns:xlink="http://www.w3.org/1999/xlink" width="32" height="32" viewBox="0 0 32 32"><defs><style>.a{fill:#d6d6d6;}.b{clip-path:url(#a);}.c{fill:#868686;}</style><clipPath id="a"><rect class="a" width="32" height="32" rx="5" transform="translate(131 212)"/></clipPath></defs><g transform="translate(-131 -212)"><g class="b"><path class="c" d="M18,8h-.667V5.333a5.333,5.333,0,1,0-10.667,0V8H6a2,2,0,0,0-2,2v9.333a2,2,0,0,0,2,2H18a2,2,0,0,0,2-2V10A2,2,0,0,0,18,8ZM8.444,5.333a3.556,3.556,0,0,1,7.111,0V8H8.444Zm4.444,9.531v2.025a.889.889,0,1,1-1.778,0V14.864a1.778,1.778,0,1,1,1.778,0Z" transform="translate(135 217.333)"/></g></g></svg>