<svg xmlns="http://www.w3.org/2000/svg" xmlns:xlink="http://www.w3.org/1999/xlink" width="32" height="32" viewBox="0 0 32 32"><defs><style>.a{fill:#868686;}.b{clip-path:url(#a);}</style><clipPath id="a"><rect class="a" width="32" height="32" rx="5" transform="translate(131 212)"/></clipPath></defs><g transform="translate(-131 -212)"><g class="b"><g transform="translate(134.59 216.848)"><path class="a" d="M0,0H1.875V3.14H0Z" transform="translate(7.182 -0.007) rotate(-28.693)"/><path class="a" d="M0,0H3.14V1.875H0Z" transform="translate(14.467 1.856) rotate(-61.307)"/><path class="a" d="M15.047,0h1.875V2.32H15.047Z" transform="translate(-3.583 -2)"/><path class="a" d="M0,0H2.32V1.875H0Z" transform="translate(17.87 3.666) rotate(-45)"/><path class="a" d="M0,0H1.875V2.32H0Z" transform="translate(4.062 3.349) rotate(-45)"/><path class="a" d="M3.984,12.708h9.063v2.354H3.984Z" transform="translate(0 -4.091)"/><path class="a" d="M18.921,12.708h9.063v2.354H18.921Z" transform="translate(-7.176 -4.091)"/><path class="a" d="M14.922,12.708h2.125v2.354H14.922Z" transform="translate(-3.583 -4.091)"/><path class="a" d="M14.922,16.938h.023V17.1h-.023Z" transform="translate(-2.532 -2.246)"/><path class="a" d="M18.921,16.938h7.345V28.31H18.921Z" transform="translate(-5.458 -5.01)"/><path class="a" d="M18.906,9.979a2.312,2.312,0,1,0-3.915-1.667,2.313,2.313,0,1,0-3.909,1.667Z" transform="translate(-2.588 -1.717)"/><path class="a" d="M5.238,16.938h8.327V28.313H5.238Z" transform="translate(-1.176 -5.01)"/></g></g></g></svg>