<svg xmlns="http://www.w3.org/2000/svg" xmlns:xlink="http://www.w3.org/1999/xlink" width="32" height="32" viewBox="0 0 32 32"><defs><style>.a{fill:#d6d6d6;}.b{clip-path:url(#a);}.c{fill:#868686;}</style><clipPath id="a"><rect class="a" width="32" height="32" rx="5" transform="translate(131 212)"/></clipPath></defs><g transform="translate(-131 -212)"><g class="b"><g transform="translate(136.333 218.4)"><g transform="translate(2.667)"><path class="c" d="M15.467,14.4V1.6a1.6,1.6,0,0,0-1.6-1.6h-9.6a1.6,1.6,0,0,0-1.6,1.6V14.4a1.6,1.6,0,0,0,1.6,1.6h9.6A1.6,1.6,0,0,0,15.467,14.4Zm-3.6-4.046a2.731,2.731,0,0,1-1.446.39,3.431,3.431,0,0,1-.556-.047l.8,2.1h-3.2l.8-2.1a2.885,2.885,0,0,1-2-.343A2.637,2.637,0,0,1,5.067,8c0-1.281,1-2.118,1.874-2.857a5.466,5.466,0,0,0,1.41-1.5.8.8,0,0,1,1.431,0,5.483,5.483,0,0,0,1.411,1.5c.879.739,1.875,1.576,1.875,2.857a2.637,2.637,0,0,1-1.2,2.354Z" transform="translate(-2.667)"/><path class="c" d="M19.2,5.333h-.8v11.2a2.4,2.4,0,0,1-2.4,2.4H8v.8a1.6,1.6,0,0,0,1.6,1.6h9.6a1.6,1.6,0,0,0,1.6-1.6V6.933A1.6,1.6,0,0,0,19.2,5.333Z" transform="translate(-4.8 -2.133)"/></g></g></g></g></svg>