<svg xmlns="http://www.w3.org/2000/svg" xmlns:xlink="http://www.w3.org/1999/xlink" width="32" height="32" viewBox="0 0 32 32"><defs><style>.a{fill:#d6d6d6;}.b{clip-path:url(#a);}.c{fill:#868686;}</style><clipPath id="a"><rect class="a" width="32" height="32" rx="5" transform="translate(131 212)"/></clipPath></defs><g transform="translate(-131 -212)"><g class="b"><g transform="translate(136.236 219.58)"><path class="c" d="M28.277,10.788a4.75,4.75,0,0,1,1.145,2.81h1.36a6.1,6.1,0,0,0-1.543-3.772Zm0,0" transform="translate(-9.253 -3.206)"/><path class="c" d="M13.178,2V.028H1.334V2Zm0,0" transform="translate(-0.436 0)"/><path class="c" d="M15.179,4.029H3.334V6h9.88a6.118,6.118,0,0,1,1.964-.722Zm0,0" transform="translate(-1.091 -1.309)"/><path class="c" d="M9.511,12.032H1.334v1.974H9.028A6.667,6.667,0,0,1,9.511,12.032Zm0,0" transform="translate(-0.436 -3.928)"/><path class="c" d="M11.5,8.031H1.334V10H9.856A6.707,6.707,0,0,1,11.5,8.031Zm0,0" transform="translate(-0.436 -2.619)"/><path class="c" d="M13.806,13.591h1.36a4.748,4.748,0,0,1,1.157-2.825L15.363,9.8A6.1,6.1,0,0,0,13.806,13.591Zm0,0" transform="translate(-4.518 -3.199)"/><path class="c" d="M23.274,6.775V8.134a4.749,4.749,0,0,1,2.858,1.148l.962-.961A6.1,6.1,0,0,0,23.274,6.775Zm0,0" transform="translate(-7.616 -2.208)"/><path class="c" d="M20.463,8.157V6.794a6.1,6.1,0,0,0-3.586,1.52l.962.962A4.749,4.749,0,0,1,20.463,8.157Zm0,0" transform="translate(-5.523 -2.214)"/><path class="c" d="M1.334,20.035v1.974h9.6a7.314,7.314,0,0,1-1.34-1.974Zm0,0" transform="translate(-0.436 -6.547)"/><path class="c" d="M20.932,9.853A4.052,4.052,0,1,0,24.984,13.9,4.052,4.052,0,0,0,20.932,9.853ZM23.1,14.211l-1.876,2.76a.359.359,0,0,1-.594,0l-1.876-2.76a.359.359,0,0,1,0-.4l1.876-2.76a.359.359,0,0,1,.594,0l1.876,2.76A.359.359,0,0,1,23.1,14.211Zm0,0" transform="translate(-5.524 -3.215)"/><path class="c" d="M8.564,16.033H0v1.974H8.884A6.913,6.913,0,0,1,8.564,16.033Zm0,0" transform="translate(0 -5.238)"/><path class="c" d="M28.3,19.172l.962.962A6.1,6.1,0,0,0,30.781,16.5H29.419A4.751,4.751,0,0,1,28.3,19.172Zm0,0" transform="translate(-9.26 -5.39)"/><path class="c" d="M23.274,22.39v1.359a6.1,6.1,0,0,0,3.834-1.558l-.961-.961A4.748,4.748,0,0,1,23.274,22.39Zm0,0" transform="translate(-7.616 -6.938)"/><path class="c" d="M13.817,16.5a6.1,6.1,0,0,0,1.536,3.648l.962-.961A4.749,4.749,0,0,1,15.179,16.5Zm0,0" transform="translate(-4.522 -5.39)"/><path class="c" d="M20.456,22.38a4.751,4.751,0,0,1-2.64-1.131l-.961.961a6.1,6.1,0,0,0,3.6,1.533Zm0,0" transform="translate(-5.516 -6.944)"/><path class="c" d="M20.747,15l1.442,2.121L23.632,15l-1.443-2.121Zm0,0" transform="translate(-6.789 -4.205)"/></g></g></g></svg>