<svg xmlns="http://www.w3.org/2000/svg" xmlns:xlink="http://www.w3.org/1999/xlink" width="32" height="32" viewBox="0 0 32 32"><defs><style>.a{fill:#868686;}.b{clip-path:url(#a);}</style><clipPath id="a"><rect class="a" width="32" height="32" rx="5" transform="translate(131 212)"/></clipPath></defs><g transform="translate(-131 -212)"><g class="b"><g transform="translate(135.321 216.298)"><g transform="translate(0 0.082)"><path class="a" d="M23.355,10.354a.688.688,0,0,0-.269-.476l-1.85-1.4.673-2.221a.688.688,0,0,0-.5-.869l-2.261-.528-.289-2.3a.688.688,0,0,0-.812-.59l-2.28.437L14.566.414a.688.688,0,0,0-.982-.209l-1.9,1.327L9.775.206a.688.688,0,0,0-.982.209L7.592,2.4l-2.28-.437a.688.688,0,0,0-.812.59l-.289,2.3-2.261.528a.688.688,0,0,0-.5.869l.673,2.221-1.85,1.4a.688.688,0,0,0-.1,1l1.518,1.756L.566,14.664a.688.688,0,0,0,.31.955l2.1.986-.2,2.313a.688.688,0,0,0,.672.746l2.321.046L6.534,21.9a.688.688,0,0,0,.917.408l2.139-.9L11.177,23.1a.688.688,0,0,0,1,0l1.587-1.694,2.139.9a.688.688,0,0,0,.917-.408l.761-2.193,2.321-.046a.688.688,0,0,0,.672-.746l-.2-2.313,2.1-.986a.688.688,0,0,0,.31-.955l-1.12-2.033,1.519-1.756A.688.688,0,0,0,23.355,10.354Zm-11.676,7.93A6.582,6.582,0,1,1,18.262,11.7,6.59,6.59,0,0,1,11.679,18.284Z" transform="translate(0 -0.082)"/></g><g transform="translate(7.004 7.026)"><path class="a" d="M13.543,8.867a4.676,4.676,0,1,0,4.676,4.676A4.681,4.681,0,0,0,13.543,8.867Zm2.422,3.789L13.318,15.3a.618.618,0,0,1-.874,0L11.121,13.98a.618.618,0,0,1,.874-.874l.887.887,2.21-2.21a.618.618,0,1,1,.874.874Z" transform="translate(-8.867 -8.867)"/></g></g></g></g></svg>