<svg xmlns="http://www.w3.org/2000/svg" xmlns:xlink="http://www.w3.org/1999/xlink" width="32" height="32" viewBox="0 0 32 32"><defs><style>.a{fill:#d6d6d6;}.b{clip-path:url(#a);}.c{fill:#868686;}</style><clipPath id="a"><rect class="a" width="32" height="32" rx="5" transform="translate(131 212)"/></clipPath></defs><g transform="translate(-131 -212)"><g class="b"><g transform="translate(137.293 217.869)"><path class="c" d="M14.483,9.248h.11q.284.005.562.036V2.391A2.394,2.394,0,0,0,12.764,0H2.391A2.394,2.394,0,0,0,0,2.391V16.142a2.394,2.394,0,0,0,2.391,2.391H9.316a6.083,6.083,0,0,1,5.167-9.285ZM8.574,3.9h3.543a.594.594,0,1,1,0,1.187H8.574a.594.594,0,0,1,0-1.187Zm0,2.375h3.543a.594.594,0,1,1,0,1.187H8.574a.594.594,0,0,1,0-1.187ZM6.581,14.629H3.038a.594.594,0,1,1,0-1.187H6.581a.594.594,0,1,1,0,1.187Zm0-2.414H3.038a.594.594,0,1,1,0-1.187H6.581a.594.594,0,1,1,0,1.187Zm0-2.375H3.038a.594.594,0,1,1,0-1.187H6.581a.594.594,0,1,1,0,1.187Zm0-2.375H3.038a.594.594,0,1,1,0-1.187H6.581a.594.594,0,1,1,0,1.187Zm0-2.375H3.038a.594.594,0,1,1,0-1.187H6.581a.594.594,0,1,1,0,1.187Zm1.4,4.156a.594.594,0,0,1,.594-.594h1.706a.594.594,0,1,1,0,1.187H8.574A.594.594,0,0,1,7.981,9.247Zm0,0"/><path class="c" d="M23.532,17.892a4.9,4.9,0,0,0-3.427-1.474h-.089a4.932,4.932,0,1,0,3.515,1.475Zm-1.409,2.657L20.241,22.9a.593.593,0,0,1-.811.109l-1.4-1.017a.594.594,0,0,1,.7-.961l.947.686L21.2,19.806a.594.594,0,0,1,.926.743Zm0,0" transform="translate(-5.534 -6.022)"/></g></g></g></svg>