<svg xmlns="http://www.w3.org/2000/svg" xmlns:xlink="http://www.w3.org/1999/xlink" width="32" height="32" viewBox="0 0 32 32"><defs><style>.a{fill:#d6d6d6;}.b{clip-path:url(#a);}.c{fill:#868686;}</style><clipPath id="a"><rect class="a" width="32" height="32" rx="5" transform="translate(131 212)"/></clipPath></defs><g transform="translate(-131 -212)"><g class="b"><g transform="translate(135.811 218.009)"><g transform="translate(3.188)"><path class="c" d="M13.384,10.644c2.957,0,4.021-2.961,4.3-5.393.343-3-1.074-5.251-4.3-5.251s-4.643,2.255-4.3,5.251C9.364,7.683,10.427,10.644,13.384,10.644Z" transform="translate(-5.384)"/><path class="c" d="M19.187,23.8a20.177,20.177,0,0,0-.308-2.821c-.2-1.125-.453-2.775-1.436-3.509a8.038,8.038,0,0,0-1.955-.819,8.481,8.481,0,0,1-.866-.389,4.5,4.5,0,0,1-3.434,1.5,4.5,4.5,0,0,1-3.434-1.5,8.46,8.46,0,0,1-.866.389,8.035,8.035,0,0,0-1.955.819c-.983.733-1.237,2.383-1.436,3.509A20.167,20.167,0,0,0,3.19,23.8c-.025.731.336.833.947,1.054a17.708,17.708,0,0,0,2.352.649,23.712,23.712,0,0,0,4.7.585,23.714,23.714,0,0,0,4.7-.585,17.686,17.686,0,0,0,2.352-.649C18.851,24.636,19.212,24.533,19.187,23.8Z" transform="translate(-3.188 -6.108)"/></g></g></g></g></svg>