<svg xmlns="http://www.w3.org/2000/svg" xmlns:xlink="http://www.w3.org/1999/xlink" width="32" height="32" viewBox="0 0 32 32"><defs><style>.a{fill:#d6d6d6;}.b{clip-path:url(#a);}.c{fill:#868686;}</style><clipPath id="a"><rect class="a" width="32" height="32" rx="5" transform="translate(131 212)"/></clipPath></defs><g transform="translate(-131 -212)"><g class="b"><g transform="translate(136.835 217.601)"><g transform="translate(0 0.641)"><path class="c" d="M6.841,4.356l8.1-2.212-.429-.868A1.142,1.142,0,0,0,12.987.76l-7.256,3.6Z" transform="translate(-2.09 -0.641)"/><path class="c" d="M19.591,3.107a1.141,1.141,0,0,0-.3.041l-1.9.521L11.571,5.255h9.477l-.356-1.306A1.14,1.14,0,0,0,19.591,3.107Z" transform="translate(-4.22 -1.54)"/><path class="c" d="M18.018,7.746H1.144a1.143,1.143,0,0,0-1.1.842,1.182,1.182,0,0,0-.041.3V21.607a1.142,1.142,0,0,0,1.142,1.142H18.016a1.142,1.142,0,0,0,1.142-1.142V18.422H12.383a1.942,1.942,0,0,1-1.941-1.941V13.942A1.938,1.938,0,0,1,12.381,12h6.776V8.888A1.139,1.139,0,0,0,18.018,7.746Z" transform="translate(0 -3.232)"/><path class="c" d="M26.411,15.994a1.14,1.14,0,0,0-.4-.237,1.164,1.164,0,0,0-.37-.062H18.836a1.142,1.142,0,0,0-1.142,1.142v2.541a1.142,1.142,0,0,0,1.142,1.142h6.806a1.164,1.164,0,0,0,.37-.062,1.107,1.107,0,0,0,.4-.237,1.138,1.138,0,0,0,.372-.842V16.836A1.138,1.138,0,0,0,26.411,15.994Zm-5.192,2.34a.571.571,0,0,1-.571.571H20.27a.571.571,0,0,1-.571-.571v-.379a.559.559,0,0,1,.219-.448.577.577,0,0,1,.352-.123h.379a.571.571,0,0,1,.571.571v.379Z" transform="translate(-6.453 -6.131)"/></g></g></g></g></svg>